<?xml version="1.0"?>
<svg width="24" height="24" xmlns="http://www.w3.org/2000/svg" xmlns:svg="http://www.w3.org/2000/svg">
 <g class="layer">
  <title>Layer 1</title>
  <g id="svg_1" stroke="#1c274c" stroke-width="1.5">
   <path d="m2,12c0,-4.71 0,-7.07 1.46,-8.54c1.47,-1.46 3.83,-1.46 8.54,-1.46c4.71,0 7.07,0 8.54,1.46c1.46,1.47 1.46,3.83 1.46,8.54c0,4.71 0,7.07 -1.46,8.54c-1.47,1.46 -3.83,1.46 -8.54,1.46c-4.71,0 -7.07,0 -8.54,-1.46c-1.46,-1.47 -1.46,-3.83 -1.46,-8.54z" fill="#5e5ef7" id="svg_2" stroke="#ffffff"/>
   <g id="svg_3" stroke-linecap="round">
    <path d="m6,15.8l1.14,1.2l2.86,-3" fill="#5e5ef7" id="svg_4" stroke="#ffffff" stroke-linejoin="round"/>
    <path d="m6,8.8l1.14,1.2l2.86,-3" fill="#5e5ef7" id="svg_5" stroke="#ffffff" stroke-linejoin="round"/>
    <path d="m13,9l5,0" fill="#5e5ef7" id="svg_6" stroke="#ffffff"/>
    <path d="m13,16l5,0" fill="#5e5ef7" id="svg_7" stroke="#ffffff"/>
   </g>
  </g>
 </g>
</svg>